<svg xmlns="http://www.w3.org/2000/svg" viewBox="0 0 164.81 175"><defs><style>.cls-1{fill:#fff;}</style></defs><title>资源 4</title><g id="图层_2" data-name="图层 2"><g id="图层_1-2" data-name="图层 1"><path class="cls-1" d="M164.72,123.13a8.28,8.28,0,0,0-6.25-9.37h-1.87a7.42,7.42,0,0,0-7.5,6.25l-5.62,26.87-26.87-40.62A58.36,58.36,0,0,0,139.09,60c0-33.13-26.88-60-59.38-60S20.34,26.88,20.34,59.38a58.36,58.36,0,0,0,22.5,46.25L33.47,120,12.84,102.5c-1.88-1.25-3.13-1.87-5-1.87s-4.38.63-5.63,2.5l-.62.63a7.59,7.59,0,0,0,.62,10l23.13,19.38L6,163.13a7.32,7.32,0,0,0,2.5,10.63A8.88,8.88,0,0,0,12.22,175a8.64,8.64,0,0,0,6.87-3.75l18.13-28.12,20.63,17.5a7.1,7.1,0,0,0,5,1.87c1.88,0,4.37-.63,5.62-2.5l.63-.63a7.59,7.59,0,0,0-.63-10L46,130l10.62-16.25a56,56,0,0,0,46.25,0l26.87,41.88L101,149.38a7.42,7.42,0,0,0-7.5,6.25A8.28,8.28,0,0,0,99.72,165l47.5,10a7.42,7.42,0,0,0,7.5-6.25C155.34,168.13,164.72,123.13,164.72,123.13ZM36,59.38a43.75,43.75,0,1,1,43.75,43.75A43.48,43.48,0,0,1,36,59.38Z"/></g></g></svg>