<svg xmlns="http://www.w3.org/2000/svg" viewBox="0 0 183.07 183.71"><defs><style>.cls-1{fill:#fff;}</style></defs><title>资源 5</title><g id="图层_2" data-name="图层 2"><g id="图层_1-2" data-name="图层 1"><path class="cls-1" d="M162.64,19.54A68.26,68.26,0,0,0,61.71,111.11L45.14,128,13.32,96.53S8.12,91.3,2.12,97c-4.79,4.54,0,11,0,11L34.05,139.3,12.32,161.53s-3.45,5.41,1.07,10c4.93,5,11,.19,11,.19l20.92-21.32,32,31.14s6,5,11-.12c4.88-4.95,0-10.88,0-10.88L56.44,139.09,73,122.2A68.26,68.26,0,0,0,162.64,19.54Zm-11.38,85.62A52.43,52.43,0,0,1,76.41,31.72a52.43,52.43,0,0,1,74.85,73.44Z"/></g></g></svg>