<svg xmlns="http://www.w3.org/2000/svg" viewBox="0 0 200.18 198.75"><defs><style>.cls-1{fill:#fff;}</style></defs><title>资源 3</title><g id="图层_2" data-name="图层 2"><g id="图层_1-2" data-name="图层 1"><path class="cls-1" d="M200.18,8.4A8.64,8.64,0,0,0,200,6.86V6.8a8.45,8.45,0,0,0-.45-1.49l0-.09a8.41,8.41,0,0,0-.74-1.39l0-.08a8.46,8.46,0,0,0-1.07-1.3h0l0,0a8.54,8.54,0,0,0-1.27-1l-.12-.07a8.42,8.42,0,0,0-1.35-.7l-.14,0a8.38,8.38,0,0,0-1.44-.42l-.12,0A8.54,8.54,0,0,0,191.72,0H104.48a8.47,8.47,0,1,0,0,16.93h66.9l-47.2,47.54A75.44,75.44,0,0,0,75.91,47h-1A75.89,75.89,0,0,0,0,123.86a76.17,76.17,0,0,0,75.86,74.89h1A75.75,75.75,0,0,0,135.95,76.65L183.25,29V95.7a8.47,8.47,0,0,0,16.93,0h0V8.4ZM118.12,164a58.57,58.57,0,0,1-41.46,17.81h-.8a59.17,59.17,0,0,1-58.93-58.18A59,59,0,0,1,75.12,63.91h.79a59.18,59.18,0,0,1,58.93,58.19A58.57,58.57,0,0,1,118.12,164Z"/></g></g></svg>