<?xml version="1.0" standalone="no"?><!DOCTYPE svg PUBLIC "-//W3C//DTD SVG 1.1//EN" "http://www.w3.org/Graphics/SVG/1.1/DTD/svg11.dtd"><svg t="1546572780969" class="icon" style="" viewBox="0 0 1024 1024" version="1.1" xmlns="http://www.w3.org/2000/svg" p-id="2636" xmlns:xlink="http://www.w3.org/1999/xlink" width="200" height="200"><defs><style type="text/css"></style></defs><path d="M861.541 469.516h-307.058v-307.058c0-23.464-19.020-42.484-42.484-42.484-23.463 0-42.484 19.020-42.484 42.484v307.058h-307.058c-23.464 0-42.484 19.020-42.484 42.484 0 23.463 19.020 42.484 42.484 42.484h307.058v307.058c0 23.463 19.020 42.484 42.484 42.484 23.463 0 42.484-19.021 42.484-42.484v-307.058h307.058c23.463 0 42.484-19.020 42.484-42.484-0.001-23.463-19.022-42.484-42.485-42.484z" p-id="2637" fill="#2c2c2c"></path></svg>