<?xml version="1.0" standalone="no"?><!DOCTYPE svg PUBLIC "-//W3C//DTD SVG 1.1//EN" "http://www.w3.org/Graphics/SVG/1.1/DTD/svg11.dtd"><svg t="1546577385844" class="icon" style="" viewBox="0 0 1024 1024" version="1.1" xmlns="http://www.w3.org/2000/svg" p-id="15603" xmlns:xlink="http://www.w3.org/1999/xlink" width="200" height="200"><defs><style type="text/css"></style></defs><path d="M512 1024c-281.6 0-512-230.4-512-512s230.4-512 512-512 512 230.4 512 512S793.6 1024 512 1024zM512 64C262.4 64 64 262.4 64 512s198.4 448 448 448 448-198.4 448-448S761.6 64 512 64z" p-id="15604"></path><path d="M736 544l-448 0C268.8 544 256 531.2 256 512s12.8-32 32-32l448 0C755.2 480 768 492.8 768 512S755.2 544 736 544z" p-id="15605"></path><path d="M512 768c-19.2 0-32-12.8-32-32l0-448C480 268.8 492.8 256 512 256s32 12.8 32 32l0 448C544 755.2 531.2 768 512 768z" p-id="15606"></path></svg>