<svg xmlns="http://www.w3.org/2000/svg" viewBox="0 0 42.63 44.27">
  <defs>
    <style>
      .cls-1 {
        fill: #3f56fe;
      }
    </style>
  </defs>
  <path id="addgrp" class="cls-1" d="M117.315,99.675a8.2,8.2,0,1,0-8.2-8.2A8.222,8.222,0,0,0,117.315,99.675Zm11.477,14.757v-4.919a1.64,1.64,0,1,1,3.279,0v4.919h4.919a1.64,1.64,0,1,1,0,3.279h-4.919v4.919a1.64,1.64,0,1,1-3.279,0v-4.919h-4.919a1.64,1.64,0,0,1,0-3.279Zm-.82-12.543a1.691,1.691,0,0,1,.82,1.394,1.644,1.644,0,0,1-1.64,1.64,1.385,1.385,0,0,1-.82-.246,15.786,15.786,0,0,0-7.378-1.722h-3.279a16.444,16.444,0,0,0-16.4,16.4,1.644,1.644,0,0,0,1.64,1.64h19.675a1.64,1.64,0,1,1,0,3.279H100.919A4.933,4.933,0,0,1,96,119.351,19.649,19.649,0,0,1,110.183,100.5a11.486,11.486,0,1,1,18.61-9.018,11.68,11.68,0,0,1-4.345,9.018A16.625,16.625,0,0,1,127.972,101.889Z" transform="translate(-96 -80)"/>
</svg>
