<svg xmlns="http://www.w3.org/2000/svg" viewBox="0 0 226.39 170"><defs><style>.cls-1{fill:#f7f7f9;}.cls-2{fill:#dadbe9;}</style></defs><title>资源 1</title><g id="图层_2" data-name="图层 2"><g id="图层_1-2" data-name="图层 1"><path class="cls-1" d="M142.8,30.26a5.79,5.79,0,0,1,0-11.58h23.53a84.78,84.78,0,0,0-11-7.47H125.91A5.79,5.79,0,0,1,122.79.55,86.81,86.81,0,0,0,113.2,0,84.61,84.61,0,0,0,60.06,18.68H84.54a5.79,5.79,0,0,1,0,11.58H48.19a84.94,84.94,0,0,0,0,109.48H90.41a5.79,5.79,0,1,1,0,11.58H60.06a85,85,0,0,0,85.69,12.21H118.94a5.81,5.81,0,0,1-5.79-5.79h0a5.81,5.81,0,0,1,5.79-5.79h46.6a85.63,85.63,0,0,0,7.31-6.42h-7.13a5.79,5.79,0,1,1,0-11.58h16.94A84.89,84.89,0,0,0,178.2,30.26Z"/><g id="图层_2-2" data-name="图层 2"><g id="图层_1-2-2" data-name="图层 1-2"><path class="cls-2" d="M113.68,115.56h0a41,41,0,0,0,41-39.49h0V44.18a10.25,10.25,0,1,1,20.49,0V74.49A61.47,61.47,0,0,1,114.89,136a10.25,10.25,0,0,1-2.43-20.35A9.87,9.87,0,0,1,113.68,115.56Z"/><circle class="cls-2" cx="113.15" cy="75.02" r="13.67"/><circle class="cls-2" cx="13.68" cy="75.02" r="13.67"/><circle class="cls-2" cx="212.47" cy="75.02" r="13.67"/><path class="cls-2" d="M216,115.56h0a41,41,0,0,1-41-39.49h0V44.18a10.25,10.25,0,0,0-20.5,0V74.49A61.49,61.49,0,0,0,214.83,136a10.25,10.25,0,0,0,2.62-20.33,11.9,11.9,0,0,0-1.34-.08Z"/><path class="cls-2" d="M10.26,115.56h0a41,41,0,0,0,41-39.49h0V44.18a10.25,10.25,0,0,1,20.5,0V74.49A61.48,61.48,0,0,1,11.46,136,10.25,10.25,0,1,1,9,115.63,10.14,10.14,0,0,1,10.26,115.56Z"/><path class="cls-2" d="M112.79,115.56h0a40.87,40.87,0,0,1-26.09-9.37h0c-2.07-1.88-3.62-1.83-7.52.37-3.38,1.92-11.48,5.91-13.87,7.08A61.36,61.36,0,0,0,111.51,136a10.25,10.25,0,1,0,2.43-20.35A8.77,8.77,0,0,0,112.79,115.56Z"/></g></g></g></g></svg>