<svg xmlns="http://www.w3.org/2000/svg" viewBox="0 0 80.16 99.17"><defs><style>.cls-1{fill:#fffefe;}</style></defs><title>资源 2</title><g id="图层_2" data-name="图层 2"><g id="图层_1-2" data-name="图层 1"><path class="cls-1" d="M15.17,32.2c7.9-2,15.17-5.75,22.81-8.49,1.72-.61,2.27-2.34,3-3.81C43.88,14.29,46.78,8.68,49.59,3c.86-1.72,1.65-3,4-3C62,.19,70.51.11,79.94.11L36.34,64.54l-.69,1.12c-.11.36-.41,1-.32,1,.5.35.69-.07.82-.5l1.21-.8L80,32.36c0,8.05.07,15.41,0,22.76,0,1.8-2,2.09-3.22,2.78C70.39,61.47,64,65,56.7,69c7.11,2.79,13.34,5.41,19.7,7.66,2.78,1,3.89,2.32,3.75,5.37-.26,5.64-.08,11.31-.08,16.89-1.77.86-2.69-.47-3.72-1.09-10-6-20-11.89-29.89-18.13-3.17-2-5.52-2.3-8.93-.33C25.74,86.16,13.71,92.58.91,98.58l29.4-57.82-.68-1L.08,56c0-4,0-7.26,0-10.5,0-13.66.1-27.33-.07-41C0,1.23.59-.19,4.29,0c5.77.32,11.58.09,17.64.09L14.64,31.66q0,.52,0,1Z"/></g></g></svg>