<svg xmlns="http://www.w3.org/2000/svg" viewBox="0 0 187.67 84.71"><defs><style>.cls-1{fill:#dadbe9;}</style></defs><title>资源 3</title><g id="图层_2" data-name="图层 2"><g id="图层_1-2" data-name="图层 1"><path class="cls-1" d="M94.28,67.7v0a34,34,0,0,0,34-32.75h0V8.5a8.5,8.5,0,0,1,17,0V33.16s0,.07,0,.1,0,.25,0,.38a51,51,0,0,1-50,51A8.5,8.5,0,1,1,94.28,67.7Z"/><circle class="cls-1" cx="93.84" cy="34.08" r="11.34"/><circle class="cls-1" cx="11.34" cy="34.08" r="11.34"/><circle class="cls-1" cx="176.21" cy="34.08" r="11.34"/><path class="cls-1" d="M179.17,67.7v0a34,34,0,0,1-34-32.75h0V8.5a8.5,8.5,0,0,0-17,0V33.16s0,.07,0,.1,0,.25,0,.38a51,51,0,0,0,50,51,8.5,8.5,0,1,0,1.06-16.93Z"/><path class="cls-1" d="M8.5,67.7v0a34,34,0,0,0,34-32.75h0V8.5a8.5,8.5,0,0,1,17,0V33.16s0,.07,0,.1,0,.25,0,.38a51,51,0,0,1-50,51A8.5,8.5,0,1,1,8.5,67.7Z"/><path class="cls-1" d="M93.54,67.7v0a33.86,33.86,0,0,1-21.64-7.77h0c-1.72-1.56-3-1.52-6.24.31-2.8,1.59-9.52,4.9-11.5,5.87A50.92,50.92,0,0,0,92.48,84.64,8.5,8.5,0,1,0,93.54,67.7Z"/></g></g></svg>