<svg xmlns="http://www.w3.org/2000/svg" viewBox="0 0 17.206 16">
  <defs>
    <style>
      .cls-1 {
        fill: #fff;
      }
    </style>
  </defs>
  <g id="发送" transform="translate(-32.012 -64)">
    <path id="路径_5" data-name="路径 5" class="cls-1" d="M480.573,110.286a.572.572,0,0,1-.573-.571V96.571a.573.573,0,0,1,1.147,0v13.143A.572.572,0,0,1,480.573,110.286Z" transform="translate(-439.96 -31.429)"/>
    <path id="路径_6" data-name="路径 6" class="cls-1" d="M48.039,80h-5.97a1.169,1.169,0,0,1-.83-.341l-.6-.6-.645.6a1.172,1.172,0,0,1-.83.341H33.189a1.167,1.167,0,0,1-1.011-.571,1.15,1.15,0,0,1-.023-1.152L39.58,64.613a1.181,1.181,0,0,1,2.07,0l7.425,13.664a1.15,1.15,0,0,1-.023,1.152A1.172,1.172,0,0,1,48.039,80Zm-7.425-2.089a1.173,1.173,0,0,1,.83.341l.6.6,5.993.009-7.4-13.7h-.052L33.162,78.821l6,.036.624-.605A1.173,1.173,0,0,1,40.614,77.911Zm-.53-13.025h0Z"/>
  </g>
</svg>
